<svg xmlns="http://www.w3.org/2000/svg" width="440" height="280" viewBox="0 0 440 280">
  <defs>
    <linearGradient id="bg" x1="0%" y1="0%" x2="100%" y2="100%">
      <stop offset="0%" style="stop-color:#1a1a2e"/>
      <stop offset="100%" style="stop-color:#16213e"/>
    </linearGradient>
    <linearGradient id="accent" x1="0%" y1="0%" x2="100%" y2="0%">
      <stop offset="0%" style="stop-color:#6c63ff"/>
      <stop offset="100%" style="stop-color:#48b8d1"/>
    </linearGradient>
    <linearGradient id="bar" x1="0%" y1="0%" x2="0%" y2="100%">
      <stop offset="0%" style="stop-color:#2a2a4a"/>
      <stop offset="100%" style="stop-color:#1e1e3a"/>
    </linearGradient>
  </defs>
  <rect width="440" height="280" rx="8" fill="url(#bg)"/>
  <rect x="0" y="0" width="180" height="280" fill="url(#bar)" rx="0"/>
  <rect x="0" y="0" width="180" height="32" fill="#222244" rx="0"/>
  <circle cx="24" cy="16" r="8" fill="url(#accent)"/>
  <text x="38" y="21" font-family="system-ui, sans-serif" font-size="12" fill="#ffffff" font-weight="600">Local AI</text>
  <rect x="12" y="48" width="156" height="24" rx="6" fill="#333366"/>
  <text x="20" y="64" font-family="system-ui, sans-serif" font-size="10" fill="#a0a0cc">What is on this page?</text>
  <rect x="12" y="80" width="140" height="16" rx="4" fill="#6c63ff"/>
  <text x="20" y="92" font-family="system-ui, sans-serif" font-size="9" fill="#ffffff">This page discusses...</text>
  <rect x="12" y="100" width="120" height="12" rx="4" fill="#6c63ff"/>
  <text x="20" y="110" font-family="system-ui, sans-serif" font-size="9" fill="#ffffff">and provides an overview</text>
  <rect x="12" y="140" width="100" height="12" rx="6" fill="#444466"/>
  <text x="20" y="150" font-family="system-ui, sans-serif" font-size="9" fill="#a0a0cc">&#x25b6; Web Search</text>
  <rect x="12" y="158" width="110" height="12" rx="6" fill="#444466"/>
  <text x="20" y="168" font-family="system-ui, sans-serif" font-size="9" fill="#a0a0cc">&#x25b6; Page Extract</text>
  <rect x="12" y="248" width="156" height="24" rx="6" fill="#333366"/>
  <text x="20" y="264" font-family="system-ui, sans-serif" font-size="10" fill="#666688">Ask anything...</text>
  <rect x="196" y="16" width="228" height="248" rx="6" fill="#1e1e38" opacity="0.6"/>
  <rect x="216" y="36" width="160" height="8" rx="4" fill="#333355"/>
  <rect x="216" y="56" width="190" height="6" rx="3" fill="#2a2a4a"/>
  <rect x="216" y="68" width="170" height="6" rx="3" fill="#2a2a4a"/>
  <rect x="216" y="80" width="180" height="6" rx="3" fill="#2a2a4a"/>
  <rect x="216" y="100" width="190" height="40" rx="4" fill="#6c63ff" opacity="0.2"/>
  <rect x="226" y="110" width="160" height="6" rx="3" fill="#8888bb"/>
  <rect x="226" y="122" width="140" height="6" rx="3" fill="#8888bb"/>
  <text x="220" y="180" font-family="system-ui, sans-serif" font-size="18" fill="#ffffff" font-weight="700">Local AI Browser</text>
  <text x="220" y="200" font-family="system-ui, sans-serif" font-size="18" fill="#ffffff" font-weight="700">Assistant</text>
  <text x="220" y="230" font-family="system-ui, sans-serif" font-size="12" fill="#8888aa">Your AI. Your browser. Your data.</text>
  <path d="M 180 110 L 196 110 L 196 100" stroke="url(#accent)" stroke-width="1.5" fill="none"/>
</svg>